# Blender 3.3.1
# www.blender.org
mtllib butaAM.mtl
o Untitled
v -0.450000 -0.311300 0.150000
v -0.450000 -0.311300 -0.150000
v -0.450000 -0.211300 0.150000
v -0.450000 -0.211300 -0.150000
v -0.450000 -0.011300 0.150000
v -0.450000 -0.011300 -0.150000
v 0.150000 -0.311300 0.150000
v 0.150000 -0.311300 -0.150000
v 0.150000 -0.211300 0.150000
v 0.150000 -0.211300 -0.150000
v 0.150000 -0.011300 0.150000
v 0.150000 -0.011300 -0.150000
v -0.150000 -0.311300 0.150000
v -0.150000 -0.311300 -0.150000
v -0.150000 -0.211300 0.150000
v -0.150000 -0.211300 -0.150000
v -0.150000 -0.011300 0.150000
v -0.150000 -0.011300 -0.150000
v 0.450000 -0.311300 0.150000
v 0.450000 -0.311300 -0.150000
v 0.450000 -0.211300 0.150000
v 0.450000 -0.211300 -0.150000
v 0.450000 -0.011300 0.150000
v 0.450000 -0.011300 -0.150000
v -0.450000 -0.311300 0.150000
v -0.450000 -0.211300 0.150000
v -0.450000 -0.011300 0.150000
v -0.150000 -0.311300 0.150000
v -0.150000 -0.211300 0.150000
v -0.150000 -0.011300 0.150000
v 0.150000 -0.311300 0.150000
v 0.150000 -0.211300 0.150000
v 0.150000 -0.011300 0.150000
v 0.450000 -0.311300 0.150000
v 0.450000 -0.211300 0.150000
v 0.450000 -0.011300 0.150000
v -0.450000 -0.311300 -0.150000
v -0.450000 -0.211300 -0.150000
v -0.450000 -0.011300 -0.150000
v -0.150000 -0.311300 -0.150000
v -0.150000 -0.211300 -0.150000
v -0.150000 -0.011300 -0.150000
v 0.150000 -0.311300 -0.150000
v 0.150000 -0.211300 -0.150000
v 0.150000 -0.011300 -0.150000
v 0.450000 -0.311300 -0.150000
v 0.450000 -0.211300 -0.150000
v 0.450000 -0.011300 -0.150000
v -0.450000 -0.311300 0.150000
v -0.150000 -0.311300 0.150000
v 0.150000 -0.311300 0.150000
v 0.450000 -0.311300 0.150000
v -0.450000 -0.311300 -0.150000
v -0.150000 -0.311300 -0.150000
v 0.150000 -0.311300 -0.150000
v 0.450000 -0.311300 -0.150000
v -0.450000 -0.011300 0.150000
v -0.150000 -0.011300 0.150000
v 0.150000 -0.011300 0.150000
v 0.450000 -0.011300 0.150000
v -0.450000 -0.011300 -0.150000
v -0.150000 -0.011300 -0.150000
v 0.150000 -0.011300 -0.150000
v 0.450000 -0.011300 -0.150000
vn -1.0000 -0.0000 -0.0000
vn 1.0000 -0.0000 -0.0000
vn -0.0000 -0.0000 1.0000
vn -0.0000 -0.0000 -1.0000
vn -0.0000 -1.0000 -0.0000
vn -0.0000 1.0000 -0.0000
vt 0.056641 0.500000
vt 0.056641 0.500000
vt 0.056641 0.500000
vt 0.080078 0.500000
vt 0.056641 0.500000
vt 0.080078 0.500000
vt 0.080078 0.500000
vt 0.080078 0.500000
vt 0.056641 0.500000
vt 0.056641 0.500000
vt 0.056641 0.500000
vt 0.080078 0.500000
vt 0.056641 0.500000
vt 0.080078 0.500000
vt 0.080078 0.500000
vt 0.080078 0.500000
vt 0.056641 0.500000
vt 0.056641 0.500000
vt 0.056641 0.500000
vt 0.080078 0.500000
vt 0.056641 0.500000
vt 0.080078 0.500000
vt 0.080078 0.500000
vt 0.080078 0.500000
vt 0.056641 0.500000
vt 0.056641 0.500000
vt 0.056641 0.500000
vt 0.080078 0.500000
vt 0.056641 0.500000
vt 0.080078 0.500000
vt 0.080078 0.500000
vt 0.080078 0.500000
vt 0.056641 0.500000
vt 0.080078 0.500000
vt 0.056641 0.500000
vt 0.080078 0.500000
vt 0.056641 0.500000
vt 0.056641 0.500000
vt 0.080078 0.500000
vt 0.080078 0.500000
vt 0.056641 0.500000
vt 0.080078 0.500000
vt 0.056641 0.500000
vt 0.080078 0.500000
vt 0.056641 0.500000
vt 0.056641 0.500000
vt 0.080078 0.500000
vt 0.080078 0.500000
vt 0.056641 0.500000
vt 0.080078 0.500000
vt 0.056641 0.500000
vt 0.080078 0.500000
vt 0.056641 0.500000
vt 0.056641 0.500000
vt 0.080078 0.500000
vt 0.080078 0.500000
vt 0.056641 0.500000
vt 0.080078 0.500000
vt 0.056641 0.500000
vt 0.080078 0.500000
vt 0.056641 0.500000
vt 0.056641 0.500000
vt 0.080078 0.500000
vt 0.080078 0.500000
vt 0.056641 0.500000
vt 0.056641 0.500000
vt 0.056641 0.500000
vt 0.056641 0.500000
vt 0.056641 0.500000
vt 0.056641 0.500000
vt 0.056641 0.500000
vt 0.056641 0.500000
vt 0.080078 0.500000
vt 0.080078 0.500000
vt 0.080078 0.500000
vt 0.080078 0.500000
vt 0.080078 0.500000
vt 0.080078 0.500000
vt 0.080078 0.500000
vt 0.080078 0.500000
s 0
usemtl palette.002
f 3/3/1 2/2/1 1/1/1
f 4/5/1 2/2/1 3/3/1
f 5/7/1 4/6/1 3/4/1
f 6/8/1 4/6/1 5/7/1
f 9/11/1 8/10/1 7/9/1
f 10/13/1 8/10/1 9/11/1
f 11/15/1 10/14/1 9/12/1
f 12/16/1 10/14/1 11/15/1
f 13/17/2 14/18/2 15/19/2
f 15/19/2 14/18/2 16/21/2
f 15/20/2 16/22/2 17/23/2
f 17/23/2 16/22/2 18/24/2
f 19/25/2 20/26/2 21/27/2
f 21/27/2 20/26/2 22/29/2
f 21/28/2 22/30/2 23/31/2
f 23/31/2 22/30/2 24/32/2
f 28/37/3 26/35/3 25/33/3
f 29/39/3 27/36/3 26/34/3
f 29/38/3 26/35/3 28/37/3
f 30/40/3 27/36/3 29/39/3
f 34/45/3 32/43/3 31/41/3
f 35/47/3 33/44/3 32/42/3
f 35/46/3 32/43/3 34/45/3
f 36/48/3 33/44/3 35/47/3
f 37/49/4 38/51/4 40/53/4
f 38/50/4 39/52/4 41/55/4
f 40/53/4 38/51/4 41/54/4
f 41/55/4 39/52/4 42/56/4
f 43/57/4 44/59/4 46/61/4
f 44/58/4 45/60/4 47/63/4
f 46/61/4 44/59/4 47/62/4
f 47/63/4 45/60/4 48/64/4
f 53/69/5 50/66/5 49/65/5
f 54/70/5 50/66/5 53/69/5
f 55/71/5 52/68/5 51/67/5
f 56/72/5 52/68/5 55/71/5
f 57/73/6 58/74/6 61/77/6
f 61/77/6 58/74/6 62/78/6
f 59/75/6 60/76/6 63/79/6
f 63/79/6 60/76/6 64/80/6
