# MagicaVoxel @ Ephtracy

# group
o 

# material
mtllib pandaHD.mtl
usemtl palette

# normals
vn 0 0 1
vn 0 0 -1
vn 1 0 0
vn -1 0 0
vn 0 -1 0
vn 0 1 0

# texcoords
vt 0.958984 0.5
vt 0.990234 0.5

# verts
v 0.2 -0.2 0.8
v -0.2 -0.2 0.8
v 0.2 -0.1 0.8
v -0.2 -0.1 0.8
v 0.2 0 0.8
v -0.2 0 0.8
v 0.2 -0.3 0.7
v -0.2 -0.3 0.7
v 0.3 -0.2 0.7
v 0.2 -0.2 0.7
v -0.2 -0.2 0.7
v -0.3 -0.2 0.7
v 0.2 -0.1 0.7
v -0.2 -0.1 0.7
v 0.3 0 0.7
v 0.2 0 0.7
v -0.2 0 0.7
v -0.3 0 0.7
v 0.2 0.1 0.7
v -0.2 0.1 0.7
v 0.4 -0.3 0.6
v 0.2 -0.3 0.6
v -0.2 -0.3 0.6
v -0.4 -0.3 0.6
v 0.3 -0.2 0.6
v 0.2 -0.2 0.6
v -0.2 -0.2 0.6
v -0.3 -0.2 0.6
v 0.4 -0.1 0.6
v 0.3 -0.1 0.6
v -0.3 -0.1 0.6
v -0.4 -0.1 0.6
v 0.3 0 0.6
v 0.2 0 0.6
v -0.2 0 0.6
v -0.3 0 0.6
v 0.4 0.1 0.6
v 0.3 0.1 0.6
v 0.2 0.1 0.6
v -0.2 0.1 0.6
v -0.3 0.1 0.6
v -0.4 0.1 0.6
v 0.3 0.2 0.6
v -0.3 0.2 0.6
v 0.5 -0.3 0.4
v 0.4 -0.3 0.4
v -0.4 -0.3 0.4
v -0.5 -0.3 0.4
v 0.4 -0.1 0.4
v -0.4 -0.1 0.4
v 0.4 0.1 0.4
v 0.3 0.1 0.4
v -0.3 0.1 0.4
v -0.4 0.1 0.4
v 0.5 0.2 0.4
v 0.4 0.2 0.4
v 0.3 0.2 0.4
v -0.3 0.2 0.4
v -0.4 0.2 0.4
v -0.5 0.2 0.4
v 0.4 0.4 0.4
v -0.4 0.4 0.4
v 0.5 0.3 0.2
v 0.4 0.3 0.2
v -0.4 0.3 0.2
v -0.5 0.3 0.2
v 0.4 0.4 0.2
v 0.3 0.4 0.2
v -0.3 0.4 0.2
v -0.4 0.4 0.2
v 0.5 0.5 0.2
v 0.3 0.5 0.2
v -0.3 0.5 0.2
v -0.5 0.5 0.2
v 0.5 0.3 0.1
v 0.4 0.3 0.1
v -0.4 0.3 0.1
v -0.5 0.3 0.1
v 0.4 0.4 0.1
v 0.3 0.4 0.1
v -0.3 0.4 0.1
v -0.4 0.4 0.1
v 0.5 0.5 0.1
v 0.3 0.5 0.1
v -0.3 0.5 0.1
v -0.5 0.5 0.1
v 0.5 -0.3 0
v -0.5 -0.3 0
v 0.5 0.2 0
v 0.4 0.2 0
v -0.4 0.2 0
v -0.5 0.2 0
v 0.4 0.4 0
v -0.4 0.4 0
v 0.5 -0.3 0.4
v 0.5 0.2 0.4
v 0.5 0.3 0.2
v 0.5 0.5 0.2
v 0.5 0.3 0.1
v 0.5 0.5 0.1
v 0.5 -0.3 0
v 0.5 0.2 0
v 0.4 -0.3 0.6
v 0.4 -0.1 0.6
v 0.4 0.1 0.6
v 0.4 -0.3 0.4
v 0.4 -0.1 0.4
v 0.4 0.1 0.4
v 0.4 0.2 0.4
v 0.4 0.4 0.4
v 0.4 0.3 0.2
v 0.4 0.4 0.2
v 0.4 0.3 0.1
v 0.4 0.4 0.1
v 0.4 0.2 0
v 0.4 0.4 0
v 0.3 -0.2 0.7
v 0.3 0 0.7
v 0.3 -0.2 0.6
v 0.3 -0.1 0.6
v 0.3 0 0.6
v 0.3 0.1 0.6
v 0.3 0.2 0.6
v 0.3 0.1 0.4
v 0.3 0.2 0.4
v 0.2 -0.2 0.8
v 0.2 -0.1 0.8
v 0.2 0 0.8
v 0.2 -0.3 0.7
v 0.2 -0.2 0.7
v 0.2 -0.1 0.7
v 0.2 0 0.7
v 0.2 0.1 0.7
v 0.2 -0.3 0.6
v 0.2 -0.2 0.6
v 0.2 0 0.6
v 0.2 0.1 0.6
v -0.3 0.4 0.2
v -0.3 0.5 0.2
v -0.3 0.4 0.1
v -0.3 0.5 0.1
v 0.3 0.4 0.2
v 0.3 0.5 0.2
v 0.3 0.4 0.1
v 0.3 0.5 0.1
v -0.2 -0.2 0.8
v -0.2 -0.1 0.8
v -0.2 0 0.8
v -0.2 -0.3 0.7
v -0.2 -0.2 0.7
v -0.2 -0.1 0.7
v -0.2 0 0.7
v -0.2 0.1 0.7
v -0.2 -0.3 0.6
v -0.2 -0.2 0.6
v -0.2 0 0.6
v -0.2 0.1 0.6
v -0.3 -0.2 0.7
v -0.3 0 0.7
v -0.3 -0.2 0.6
v -0.3 -0.1 0.6
v -0.3 0 0.6
v -0.3 0.1 0.6
v -0.3 0.2 0.6
v -0.3 0.1 0.4
v -0.3 0.2 0.4
v -0.4 -0.3 0.6
v -0.4 -0.1 0.6
v -0.4 0.1 0.6
v -0.4 -0.3 0.4
v -0.4 -0.1 0.4
v -0.4 0.1 0.4
v -0.4 0.2 0.4
v -0.4 0.4 0.4
v -0.4 0.3 0.2
v -0.4 0.4 0.2
v -0.4 0.3 0.1
v -0.4 0.4 0.1
v -0.4 0.2 0
v -0.4 0.4 0
v -0.5 -0.3 0.4
v -0.5 0.2 0.4
v -0.5 0.3 0.2
v -0.5 0.5 0.2
v -0.5 0.3 0.1
v -0.5 0.5 0.1
v -0.5 -0.3 0
v -0.5 0.2 0
v 0.5 -0.3 0.4
v 0.5 -0.3 0
v 0.4 -0.3 0.6
v 0.4 -0.3 0.4
v 0.2 -0.3 0.7
v 0.2 -0.3 0.6
v -0.2 -0.3 0.7
v -0.2 -0.3 0.6
v -0.4 -0.3 0.6
v -0.4 -0.3 0.4
v -0.5 -0.3 0.4
v -0.5 -0.3 0
v 0.3 -0.2 0.7
v 0.3 -0.2 0.6
v 0.2 -0.2 0.8
v 0.2 -0.2 0.7
v 0.2 -0.2 0.6
v -0.2 -0.2 0.8
v -0.2 -0.2 0.7
v -0.2 -0.2 0.6
v -0.3 -0.2 0.7
v -0.3 -0.2 0.6
v 0.5 0.3 0.2
v 0.5 0.3 0.1
v 0.4 0.3 0.2
v 0.4 0.3 0.1
v -0.4 0.3 0.2
v -0.4 0.3 0.1
v -0.5 0.3 0.2
v -0.5 0.3 0.1
v 0.3 0 0.7
v 0.3 0 0.6
v 0.2 0 0.8
v 0.2 0 0.7
v 0.2 0 0.6
v -0.2 0 0.8
v -0.2 0 0.7
v -0.2 0 0.6
v -0.3 0 0.7
v -0.3 0 0.6
v 0.4 0.1 0.6
v 0.4 0.1 0.4
v 0.3 0.1 0.6
v 0.3 0.1 0.4
v 0.2 0.1 0.7
v 0.2 0.1 0.6
v -0.2 0.1 0.7
v -0.2 0.1 0.6
v -0.3 0.1 0.6
v -0.3 0.1 0.4
v -0.4 0.1 0.6
v -0.4 0.1 0.4
v 0.5 0.2 0.4
v 0.5 0.2 0
v 0.4 0.2 0.4
v 0.4 0.2 0
v 0.3 0.2 0.6
v 0.3 0.2 0.4
v -0.3 0.2 0.6
v -0.3 0.2 0.4
v -0.4 0.2 0.4
v -0.4 0.2 0
v -0.5 0.2 0.4
v -0.5 0.2 0
v 0.4 0.4 0.4
v 0.4 0.4 0.2
v 0.4 0.4 0.1
v 0.4 0.4 0
v 0.3 0.4 0.2
v 0.3 0.4 0.1
v -0.3 0.4 0.2
v -0.3 0.4 0.1
v -0.4 0.4 0.4
v -0.4 0.4 0.2
v -0.4 0.4 0.1
v -0.4 0.4 0
v 0.5 0.5 0.2
v 0.5 0.5 0.1
v 0.3 0.5 0.2
v 0.3 0.5 0.1
v -0.3 0.5 0.2
v -0.3 0.5 0.1
v -0.5 0.5 0.2
v -0.5 0.5 0.1

# faces
f 3/2/1 2/2/1 1/2/1
f 4/2/1 2/2/1 3/2/1
f 5/1/1 4/1/1 3/1/1
f 6/1/1 4/1/1 5/1/1
f 10/1/1 8/1/1 7/1/1
f 11/1/1 8/1/1 10/1/1
f 13/1/1 10/1/1 9/1/1
f 14/1/1 12/1/1 11/1/1
f 15/1/1 13/1/1 9/1/1
f 16/1/1 13/1/1 15/1/1
f 17/1/1 12/1/1 14/1/1
f 18/1/1 12/1/1 17/1/1
f 19/1/1 17/1/1 16/1/1
f 20/1/1 17/1/1 19/1/1
f 25/1/1 22/1/1 21/1/1
f 26/1/1 22/1/1 25/1/1
f 27/1/1 24/1/1 23/1/1
f 28/1/1 24/1/1 27/1/1
f 29/1/1 25/1/1 21/1/1
f 30/1/1 25/1/1 29/1/1
f 31/1/1 24/1/1 28/1/1
f 32/1/1 24/1/1 31/1/1
f 33/2/1 30/2/1 29/2/1
f 36/2/1 32/2/1 31/2/1
f 37/2/1 34/2/1 33/2/1
f 37/2/1 33/2/1 29/2/1
f 38/2/1 34/2/1 37/2/1
f 39/2/1 34/2/1 38/2/1
f 40/2/1 36/2/1 35/2/1
f 41/2/1 32/2/1 36/2/1
f 41/2/1 36/2/1 40/2/1
f 42/2/1 32/2/1 41/2/1
f 43/1/1 39/1/1 38/1/1
f 43/1/1 40/1/1 39/1/1
f 43/1/1 41/1/1 40/1/1
f 44/1/1 41/1/1 43/1/1
f 49/1/1 46/1/1 45/1/1
f 50/1/1 48/1/1 47/1/1
f 51/1/1 49/1/1 45/1/1
f 54/1/1 48/1/1 50/1/1
f 55/1/1 52/1/1 51/1/1
f 55/1/1 51/1/1 45/1/1
f 56/1/1 52/1/1 55/1/1
f 57/1/1 52/1/1 56/1/1
f 58/1/1 54/1/1 53/1/1
f 59/1/1 48/1/1 54/1/1
f 59/1/1 54/1/1 58/1/1
f 60/1/1 48/1/1 59/1/1
f 61/1/1 57/1/1 56/1/1
f 61/1/1 58/1/1 57/1/1
f 61/1/1 59/1/1 58/1/1
f 62/1/1 59/1/1 61/1/1
f 67/2/1 64/2/1 63/2/1
f 70/2/1 66/2/1 65/2/1
f 71/2/1 68/2/1 67/2/1
f 71/2/1 67/2/1 63/2/1
f 72/2/1 68/2/1 71/2/1
f 73/2/1 70/2/1 69/2/1
f 74/2/1 66/2/1 70/2/1
f 74/2/1 70/2/1 73/2/1
f 75/2/2 76/2/2 79/2/2
f 77/2/2 78/2/2 82/2/2
f 79/2/2 80/2/2 83/2/2
f 75/2/2 79/2/2 83/2/2
f 83/2/2 80/2/2 84/2/2
f 81/2/2 82/2/2 85/2/2
f 82/2/2 78/2/2 86/2/2
f 85/2/2 82/2/2 86/2/2
f 87/1/2 88/1/2 89/1/2
f 89/1/2 88/1/2 90/1/2
f 90/1/2 88/1/2 91/1/2
f 91/1/2 88/1/2 92/1/2
f 90/1/2 91/1/2 93/1/2
f 93/1/2 91/1/2 94/1/2
f 99/2/3 98/2/3 97/2/3
f 100/2/3 98/2/3 99/2/3
f 101/1/3 96/1/3 95/1/3
f 102/1/3 96/1/3 101/1/3
f 106/1/3 104/1/3 103/1/3
f 107/2/3 105/2/3 104/2/3
f 107/1/3 104/1/3 106/1/3
f 108/2/3 105/2/3 107/2/3
f 111/1/3 110/1/3 109/1/3
f 112/1/3 110/1/3 111/1/3
f 113/1/3 111/1/3 109/1/3
f 115/1/3 113/1/3 109/1/3
f 115/1/3 114/1/3 113/1/3
f 116/1/3 114/1/3 115/1/3
f 119/1/3 118/1/3 117/1/3
f 120/1/3 118/1/3 119/1/3
f 121/1/3 118/1/3 120/1/3
f 124/1/3 123/1/3 122/1/3
f 125/1/3 123/1/3 124/1/3
f 130/2/3 127/2/3 126/2/3
f 131/1/3 128/1/3 127/1/3
f 131/2/3 127/2/3 130/2/3
f 132/1/3 128/1/3 131/1/3
f 134/1/3 130/1/3 129/1/3
f 135/1/3 130/1/3 134/1/3
f 136/1/3 133/1/3 132/1/3
f 137/1/3 133/1/3 136/1/3
f 140/2/3 139/2/3 138/2/3
f 141/2/3 139/2/3 140/2/3
f 142/2/4 143/2/4 144/2/4
f 144/2/4 143/2/4 145/2/4
f 146/2/4 147/2/4 150/2/4
f 147/1/4 148/1/4 151/1/4
f 150/2/4 147/2/4 151/2/4
f 151/1/4 148/1/4 152/1/4
f 149/1/4 150/1/4 154/1/4
f 154/1/4 150/1/4 155/1/4
f 152/1/4 153/1/4 156/1/4
f 156/1/4 153/1/4 157/1/4
f 158/1/4 159/1/4 160/1/4
f 160/1/4 159/1/4 161/1/4
f 161/1/4 159/1/4 162/1/4
f 163/1/4 164/1/4 165/1/4
f 165/1/4 164/1/4 166/1/4
f 167/1/4 168/1/4 170/1/4
f 168/2/4 169/2/4 171/2/4
f 170/1/4 168/1/4 171/1/4
f 171/2/4 169/2/4 172/2/4
f 173/1/4 174/1/4 175/1/4
f 175/1/4 174/1/4 176/1/4
f 173/1/4 175/1/4 177/1/4
f 173/1/4 177/1/4 179/1/4
f 177/1/4 178/1/4 179/1/4
f 179/1/4 178/1/4 180/1/4
f 183/2/4 184/2/4 185/2/4
f 185/2/4 184/2/4 186/2/4
f 181/1/4 182/1/4 187/1/4
f 187/1/4 182/1/4 188/1/4
f 192/1/5 190/1/5 189/1/5
f 194/1/5 192/1/5 191/1/5
f 195/1/5 194/1/5 193/1/5
f 196/1/5 192/1/5 194/1/5
f 196/1/5 194/1/5 195/1/5
f 197/1/5 192/1/5 196/1/5
f 198/1/5 190/1/5 192/1/5
f 198/1/5 192/1/5 197/1/5
f 199/1/5 190/1/5 198/1/5
f 200/1/5 190/1/5 199/1/5
f 204/1/5 202/1/5 201/1/5
f 205/1/5 202/1/5 204/1/5
f 206/2/5 204/2/5 203/2/5
f 207/2/5 204/2/5 206/2/5
f 209/1/5 208/1/5 207/1/5
f 210/1/5 208/1/5 209/1/5
f 213/2/5 212/2/5 211/2/5
f 214/2/5 212/2/5 213/2/5
f 217/2/5 216/2/5 215/2/5
f 218/2/5 216/2/5 217/2/5
f 219/1/6 220/1/6 222/1/6
f 222/1/6 220/1/6 223/1/6
f 221/1/6 222/1/6 224/1/6
f 224/1/6 222/1/6 225/1/6
f 225/1/6 226/1/6 227/1/6
f 227/1/6 226/1/6 228/1/6
f 229/2/6 230/2/6 231/2/6
f 231/2/6 230/2/6 232/2/6
f 233/1/6 234/1/6 235/1/6
f 235/1/6 234/1/6 236/1/6
f 237/2/6 238/2/6 239/2/6
f 239/2/6 238/2/6 240/2/6
f 241/1/6 242/1/6 243/1/6
f 243/1/6 242/1/6 244/1/6
f 245/1/6 246/1/6 247/1/6
f 247/1/6 246/1/6 248/1/6
f 249/1/6 250/1/6 251/1/6
f 251/1/6 250/1/6 252/1/6
f 253/1/6 254/1/6 257/1/6
f 255/1/6 256/1/6 258/1/6
f 253/1/6 257/1/6 259/1/6
f 257/1/6 258/1/6 259/1/6
f 258/1/6 256/1/6 260/1/6
f 259/1/6 258/1/6 260/1/6
f 253/1/6 259/1/6 261/1/6
f 261/1/6 259/1/6 262/1/6
f 260/1/6 256/1/6 263/1/6
f 263/1/6 256/1/6 264/1/6
f 265/2/6 266/2/6 267/2/6
f 267/2/6 266/2/6 268/2/6
f 269/2/6 270/2/6 271/2/6
f 271/2/6 270/2/6 272/2/6
