# Blender 3.3.1
# www.blender.org
mtllib 鶏頭ver2.mtl
o 立方体.017
v 4.400003 -0.006481 3.400000
v 4.400003 -0.006481 -0.600000
v 4.400003 3.993519 3.400000
v 12.400003 -0.006481 3.400000
v 12.400003 -0.006481 -0.600000
v 12.400003 3.993519 3.400000
v 12.400003 3.993519 -0.600000
v 4.400003 3.993519 -0.600000
v 6.400000 1.993477 -2.600000
v 6.400000 1.993476 -4.600000
v 6.400000 3.993476 -2.600000
v 10.400001 1.993476 -2.600000
v 10.400001 1.993476 -4.600000
v 10.400000 3.993476 -2.600000
v 10.400000 3.993475 -4.600000
v 6.400000 3.993477 -4.600000
v 6.400002 -0.006481 7.400000
v 6.400002 -0.006481 3.400000
v 6.400002 3.993519 7.400000
v 10.400002 -0.006481 7.400000
v 10.400002 -0.006481 3.400000
v 10.400002 3.993519 7.400000
v 10.400002 3.993519 3.400000
v 6.400002 3.993519 3.400000
v 2.400000 -0.006524 -0.600001
v 2.400000 -0.006523 -4.600000
v 2.400000 1.993476 -0.600000
v 14.400001 -0.006524 -0.600001
v 14.400001 -0.006523 -4.600000
v 14.400001 1.904772 -4.600000
v 14.400001 1.993477 -4.600000
v 14.400001 1.993476 -2.471131
v 14.400001 1.993476 -0.600000
v 2.400000 1.993477 -4.600000
v 4.400000 1.993476 -0.600000
v 4.400000 1.993476 -2.600000
v 4.400001 3.993476 -0.600000
v 12.400001 1.993476 -0.600000
v 12.400001 2.993476 -0.600000
v 12.400001 1.993476 -1.600000
v 12.400001 1.993476 -2.600000
v 12.400001 2.993477 -1.600000
v 12.400001 2.993476 -2.600000
v 12.400001 3.993477 -1.600000
v 12.400001 3.993477 -0.600000
v 12.400001 3.993476 -2.600000
v 8.400001 3.993476 -1.600000
v 8.400001 3.993477 -0.600000
v 8.400001 3.993476 -2.600000
v 4.400001 3.993476 -1.600000
v 4.400001 3.993476 -2.600000
v 6.400000 3.993476 -0.600000
v 6.400000 3.993476 -2.600000
v 6.400000 5.993476 -0.600001
v 10.400000 3.993477 -0.600000
v 10.400000 3.993476 -2.600000
v 10.400001 5.993477 -0.600001
v 10.400001 5.993476 -2.600000
v 6.400000 5.993476 -2.600000
v 4.400000 7.993476 5.400000
v 4.400000 7.993477 1.400000
v 4.400000 9.993477 5.400000
v 12.400001 7.993477 5.400000
v 12.400001 7.993475 1.400000
v 12.400001 9.993477 5.400000
v 12.400001 9.993475 1.400000
v 4.400000 9.993477 1.400000
v 4.400001 3.993476 5.400000
v 4.400001 3.993476 -0.600000
v 4.400000 7.993476 5.400000
v 12.400001 3.993477 5.400000
v 12.400001 5.993477 5.400000
v 12.400001 3.993477 2.400000
v 12.400001 3.993477 -0.600000
v 12.400001 5.993477 2.400000
v 12.400001 5.993477 -0.600000
v 12.400001 7.993477 2.400000
v 12.400001 7.993477 5.400000
v 12.400001 7.993477 -0.600000
v 4.400000 7.993476 -0.600000
v 4.400000 -0.006524 -4.600000
v 4.400000 -0.006524 -6.600000
v 4.400000 1.993476 -4.600000
v 12.400001 -0.006523 -4.600000
v 12.400001 -0.006524 -6.600000
v 12.400001 1.993476 -4.600000
v 12.400001 1.993476 -6.600000
v 4.400000 1.993476 -6.600000
v 2.400000 -0.006524 -0.600001
v 2.400000 1.993476 -0.600000
v 14.400001 -0.006524 -0.600001
v 14.400001 -0.006523 -4.600000
v 14.400001 1.993476 -0.600000
v 14.400001 1.993476 -2.471131
v 14.400001 1.904772 -4.600000
v 12.400001 -0.006523 -4.600000
v 12.400001 -0.006524 -6.600000
v 12.400001 1.993476 -4.600000
v 12.400001 1.993476 -6.600000
v 4.000000 6.230000 3.400000
v 4.000000 6.230000 1.400000
v 4.000000 8.230000 3.400000
v 4.400000 6.230000 3.400000
v 4.400000 6.230000 1.400000
v 4.400000 8.230000 3.400000
v 4.400000 8.230000 1.400000
v 4.000000 8.230000 1.400000
v 10.400001 7.993477 5.400000
v 10.400001 3.993477 5.400000
v 10.400001 7.993477 9.400000
v 6.400000 7.993477 5.400000
v 6.400000 3.993477 5.400000
v 6.400000 7.993477 9.400000
v 6.400000 3.993477 9.400000
v 10.400001 3.993477 9.400000
v 6.400000 11.993475 3.400000
v 6.400000 11.993475 1.400000
v 6.400000 13.993475 3.400000
v 10.400001 11.993475 3.400000
v 10.400001 11.993475 1.400000
v 10.400001 13.993475 3.400000
v 10.400001 13.993475 1.400000
v 6.400000 13.993475 1.400000
v 6.400000 9.993475 5.400000
v 6.400000 9.993475 1.400000
v 6.400000 11.993475 5.400000
v 10.400001 9.993475 5.400000
v 10.400001 9.993475 1.400000
v 10.400001 11.993475 5.400000
v 10.400001 11.993475 1.400000
v 6.400000 11.993475 1.400000
v 6.400000 5.993475 -0.600000
v 6.400000 5.993475 -4.600000
v 6.400000 7.993475 -0.600000
v 10.400001 5.993475 -0.600000
v 10.400001 5.993475 -4.600000
v 10.400001 7.993475 -0.600000
v 10.400001 7.993475 -4.600000
v 6.400000 7.993475 -4.600000
v 6.400000 7.993475 1.400000
v 6.400000 7.993475 -2.600000
v 6.400000 11.993475 1.400000
v 10.400001 7.993475 1.400000
v 10.400001 7.993475 -2.600000
v 10.400001 11.993475 1.400000
v 10.400001 11.993475 -2.600000
v 6.400000 11.993475 -2.600000
v 12.400001 6.229998 3.400000
v 12.400001 6.229998 1.400000
v 12.400001 8.229998 3.400000
v 12.800000 6.229998 3.400000
v 12.800000 6.229998 1.400000
v 12.800000 8.229998 3.400000
v 12.800000 8.229998 1.400000
v 12.400001 8.229998 1.400000
vn -0.0000 -1.0000 -0.0000
vn -1.0000 -0.0000 -0.0000
vn -0.0000 -0.0000 1.0000
vn 1.0000 -0.0000 -0.0000
vn -0.0000 1.0000 -0.0000
vn -0.0000 -0.0000 -1.0000
vt 0.125000 0.750000
vt 0.375000 0.000000
vt 0.375000 1.000000
vt 0.125000 0.500000
vt 0.375000 0.250000
vt 0.625000 0.000000
vt 0.625000 1.000000
vt 0.875000 0.750000
vt 0.375000 0.750000
vt 0.375000 0.500000
vt 0.625000 0.750000
vt 0.625000 0.500000
vt 0.875000 0.500000
vt 0.625000 0.250000
vt 0.125000 0.750000
vt 0.375000 0.000000
vt 0.375000 1.000000
vt 0.125000 0.500000
vt 0.375000 0.250000
vt 0.625000 0.000000
vt 0.625000 1.000000
vt 0.875000 0.750000
vt 0.375000 0.750000
vt 0.375000 0.500000
vt 0.625000 0.750000
vt 0.625000 0.500000
vt 0.875000 0.500000
vt 0.625000 0.250000
vt 0.125000 0.750000
vt 0.375000 0.000000
vt 0.375000 1.000000
vt 0.125000 0.500000
vt 0.375000 0.250000
vt 0.625000 0.000000
vt 0.625000 1.000000
vt 0.875000 0.750000
vt 0.375000 0.750000
vt 0.375000 0.500000
vt 0.625000 0.750000
vt 0.625000 0.500000
vt 0.875000 0.500000
vt 0.625000 0.250000
vt 0.375000 0.000000
vt 0.125000 0.750000
vt 0.125000 0.500000
vt 0.375000 0.250000
vt 0.625000 0.000000
vt 0.875000 0.750000
vt 0.375000 0.750000
vt 0.375000 0.500000
vt 0.613912 0.500000
vt 0.625000 0.500000
vt 0.625000 0.633054
vt 0.625000 0.750000
vt 0.625000 0.250000
vt 0.875000 0.500000
vt 0.375000 0.000000
vt 0.125000 0.750000
vt 0.375000 1.000000
vt 0.125000 0.500000
vt 0.375000 0.250000
vt 0.625000 0.000000
vt 0.625000 1.000000
vt 0.875000 0.750000
vt 0.375000 0.750000
vt 0.500000 0.750000
vt 0.375000 0.625000
vt 0.375000 0.500000
vt 0.500000 0.625000
vt 0.500000 0.500000
vt 0.625000 0.625000
vt 0.625000 0.750000
vt 0.625000 0.500000
vt 0.750000 0.625000
vt 0.750000 0.750000
vt 0.625000 0.875000
vt 0.750000 0.500000
vt 0.625000 0.375000
vt 0.625000 0.125000
vt 0.875000 0.625000
vt 0.875000 0.500000
vt 0.625000 0.250000
vt 0.375000 0.000000
vt 0.125000 0.750000
vt 0.375000 1.000000
vt 0.125000 0.500000
vt 0.375000 0.250000
vt 0.625000 0.000000
vt 0.625000 1.000000
vt 0.875000 0.750000
vt 0.375000 0.750000
vt 0.375000 0.500000
vt 0.625000 0.750000
vt 0.625000 0.500000
vt 0.875000 0.500000
vt 0.625000 0.250000
vt 0.375000 0.000000
vt 0.125000 0.750000
vt 0.375000 1.000000
vt 0.125000 0.500000
vt 0.375000 0.250000
vt 0.625000 0.000000
vt 0.625000 1.000000
vt 0.875000 0.750000
vt 0.375000 0.750000
vt 0.375000 0.500000
vt 0.625000 0.750000
vt 0.625000 0.500000
vt 0.875000 0.500000
vt 0.625000 0.250000
vt 0.375000 0.000000
vt 0.125000 0.750000
vt 0.375000 1.000000
vt 0.125000 0.500000
vt 0.375000 0.250000
vt 0.625000 0.000000
vt 0.625000 1.000000
vt 0.875000 0.750000
vt 0.375000 0.750000
vt 0.500000 0.750000
vt 0.375000 0.625000
vt 0.375000 0.500000
vt 0.500000 0.625000
vt 0.500000 0.500000
vt 0.625000 0.625000
vt 0.625000 0.750000
vt 0.625000 0.500000
vt 0.875000 0.500000
vt 0.625000 0.250000
vt 0.375000 0.000000
vt 0.125000 0.750000
vt 0.375000 1.000000
vt 0.125000 0.500000
vt 0.375000 0.250000
vt 0.625000 0.000000
vt 0.625000 1.000000
vt 0.875000 0.750000
vt 0.375000 0.750000
vt 0.375000 0.500000
vt 0.625000 0.750000
vt 0.625000 0.500000
vt 0.875000 0.500000
vt 0.625000 0.250000
vt 0.375000 1.000000
vt 0.625000 1.000000
vt 0.375000 0.750000
vt 0.375000 0.500000
vt 0.625000 0.750000
vt 0.625000 0.633054
vt 0.613912 0.500000
vt 0.375000 0.750000
vt 0.375000 0.500000
vt 0.625000 0.750000
vt 0.625000 0.500000
vt 0.375000 0.000000
vt 0.125000 0.750000
vt 0.375000 1.000000
vt 0.125000 0.500000
vt 0.375000 0.250000
vt 0.625000 0.000000
vt 0.625000 1.000000
vt 0.875000 0.750000
vt 0.375000 0.750000
vt 0.375000 0.500000
vt 0.625000 0.750000
vt 0.625000 0.500000
vt 0.875000 0.500000
vt 0.625000 0.250000
vt 0.000000 0.000000
vt 0.000000 0.000000
vt 0.000000 0.000000
vt 0.000000 0.000000
vt 0.000000 0.000000
vt 0.000000 0.000000
vt 0.000000 0.000000
vt 0.000000 0.000000
vt 0.375000 0.000000
vt 0.125000 0.750000
vt 0.375000 1.000000
vt 0.125000 0.500000
vt 0.375000 0.250000
vt 0.625000 0.000000
vt 0.625000 1.000000
vt 0.875000 0.750000
vt 0.375000 0.750000
vt 0.375000 0.500000
vt 0.625000 0.750000
vt 0.625000 0.500000
vt 0.875000 0.500000
vt 0.625000 0.250000
vt 0.375000 0.000000
vt 0.125000 0.750000
vt 0.375000 1.000000
vt 0.125000 0.500000
vt 0.375000 0.250000
vt 0.625000 0.000000
vt 0.625000 1.000000
vt 0.875000 0.750000
vt 0.375000 0.750000
vt 0.375000 0.500000
vt 0.625000 0.750000
vt 0.625000 0.500000
vt 0.875000 0.500000
vt 0.625000 0.250000
vt 0.375000 0.000000
vt 0.125000 0.750000
vt 0.375000 1.000000
vt 0.125000 0.500000
vt 0.375000 0.250000
vt 0.625000 0.000000
vt 0.625000 1.000000
vt 0.875000 0.750000
vt 0.375000 0.750000
vt 0.375000 0.500000
vt 0.625000 0.750000
vt 0.625000 0.500000
vt 0.875000 0.500000
vt 0.625000 0.250000
vt 0.375000 0.000000
vt 0.125000 0.750000
vt 0.375000 1.000000
vt 0.125000 0.500000
vt 0.375000 0.250000
vt 0.625000 0.000000
vt 0.625000 1.000000
vt 0.875000 0.750000
vt 0.375000 0.750000
vt 0.375000 0.500000
vt 0.625000 0.750000
vt 0.625000 0.500000
vt 0.875000 0.500000
vt 0.625000 0.250000
vt 0.375000 0.000000
vt 0.125000 0.750000
vt 0.375000 1.000000
vt 0.125000 0.500000
vt 0.375000 0.250000
vt 0.625000 0.000000
vt 0.625000 1.000000
vt 0.875000 0.750000
vt 0.375000 0.750000
vt 0.375000 0.500000
vt 0.625000 0.750000
vt 0.625000 0.500000
vt 0.875000 0.500000
vt 0.625000 0.250000
s 0
usemtl マテリアル.001
f 7/12/5 8/13/5 3/8/5 6/11/5
f 2/5/6 8/14/6 7/12/6 5/10/6
usemtl 身体.001
f 2/4/1 5/10/1 4/9/1 1/1/1
f 1/2/2 3/6/2 8/14/2 2/5/2
f 4/9/3 6/11/3 3/7/3 1/3/3
f 5/10/4 7/12/4 6/11/4 4/9/4
usemtl 目.001
f 100/155/2 102/160/2 107/168/2 101/159/2
f 101/158/1 104/164/1 103/163/1 100/156/1
f 103/163/3 105/165/3 102/161/3 100/157/3
f 104/164/4 106/166/4 105/165/4 103/163/4
f 106/166/5 107/167/5 102/162/5 105/165/5
f 101/159/6 107/168/6 106/166/6 104/164/6
usemtl クチバシ
f 109/170/4 108/169/4 110/171/4 115/176/4
f 112/173/6 111/172/6 108/169/6 109/170/6
f 108/169/5 111/172/5 113/174/5 110/171/5
f 114/175/2 113/174/2 111/172/2 112/173/2
f 115/176/3 110/171/3 113/174/3 114/175/3
f 112/173/1 109/170/1 115/176/1 114/175/1
usemtl マテリアル
f 18/32/1 21/38/1 20/37/1 17/29/1
f 17/30/2 19/34/2 24/42/2 18/33/2
f 20/37/3 22/39/3 19/35/3 17/31/3
f 21/38/4 23/40/4 22/39/4 20/37/4
f 23/40/5 24/41/5 19/36/5 22/39/5
f 18/33/6 24/42/6 23/40/6 21/38/6
f 116/177/2 118/182/2 123/190/2 117/181/2
f 117/180/1 120/186/1 119/185/1 116/178/1
f 119/185/3 121/187/3 118/183/3 116/179/3
f 120/186/4 122/188/4 121/187/4 119/185/4
f 122/188/5 123/189/5 118/184/5 121/187/5
f 117/181/6 123/190/6 122/188/6 120/186/6
f 124/191/2 126/196/2 131/204/2 125/195/2
f 125/194/1 128/200/1 127/199/1 124/192/1
f 127/199/3 129/201/3 126/197/3 124/193/3
f 128/200/4 130/202/4 129/201/4 127/199/4
f 130/202/5 131/203/5 126/198/5 129/201/5
f 125/195/6 131/204/6 130/202/6 128/200/6
f 132/205/2 134/210/2 139/218/2 133/209/2
f 133/208/1 136/214/1 135/213/1 132/206/1
f 135/213/3 137/215/3 134/211/3 132/207/3
f 136/214/4 138/216/4 137/215/4 135/213/4
f 138/216/5 139/217/5 134/212/5 137/215/5
f 133/209/6 139/218/6 138/216/6 136/214/6
f 140/219/2 142/224/2 147/232/2 141/223/2
f 141/222/1 144/228/1 143/227/1 140/220/1
f 143/227/3 145/229/3 142/225/3 140/221/3
f 144/228/4 146/230/4 145/229/4 143/227/4
f 146/230/5 147/231/5 142/226/5 145/229/5
f 141/223/6 147/232/6 146/230/6 144/228/6
usemtl 身体
f 10/18/1 13/24/1 12/23/1 9/15/1
f 9/16/2 11/20/2 16/28/2 10/19/2
f 12/23/3 14/25/3 11/21/3 9/17/3
f 13/24/4 15/26/4 14/25/4 12/23/4
f 15/26/5 16/27/5 11/22/5 14/25/5
f 10/19/6 16/28/6 15/26/6 13/24/6
f 25/43/2 27/47/2 34/55/2 26/46/2
f 26/45/1 29/50/1 28/49/1 25/44/1
f 26/46/6 34/55/6 31/52/6 30/51/6 29/50/6
f 32/53/4 30/51/4 31/52/4
f 31/52/5 34/56/5 27/48/5 33/54/5 32/53/5
f 35/57/2 37/62/2 50/79/2 51/82/2 36/61/2
f 36/60/1 41/68/1 40/67/1 38/65/1 35/58/1
f 38/65/3 39/66/3 48/76/3 37/63/3 35/59/3
f 40/67/4 42/69/4 39/66/4 38/65/4
f 41/68/4 43/70/4 42/69/4 40/67/4
f 42/69/4 44/71/4 45/72/4 39/66/4
f 43/70/4 46/73/4 44/71/4 42/69/4
f 44/71/5 47/74/5 48/75/5 45/72/5
f 46/73/5 49/77/5 47/74/5 44/71/5
f 47/74/5 50/80/5 37/64/5 48/75/5
f 49/77/5 51/81/5 50/80/5 47/74/5
f 36/61/6 51/82/6 49/78/6 43/70/6 41/68/6
f 43/70/6 49/78/6 46/73/6
f 39/66/3 45/72/3 48/76/3
f 52/83/2 54/88/2 59/96/2 53/87/2
f 53/86/1 56/92/1 55/91/1 52/84/1
f 55/91/3 57/93/3 54/89/3 52/85/3
f 56/92/4 58/94/4 57/93/4 55/91/4
f 58/94/5 59/95/5 54/90/5 57/93/5
f 53/87/6 59/96/6 58/94/6 56/92/6
f 60/97/2 62/102/2 67/110/2 61/101/2
f 61/100/1 64/106/1 63/105/1 60/98/1
f 63/105/3 65/107/3 62/103/3 60/99/3
f 64/106/4 66/108/4 65/107/4 63/105/4
f 66/108/5 67/109/5 62/104/5 65/107/5
f 61/101/6 67/110/6 66/108/6 64/106/6
f 68/111/2 70/116/2 80/129/2 69/115/2
f 69/114/1 74/122/1 73/121/1 71/119/1 68/112/1
f 71/119/3 72/120/3 78/126/3 70/117/3 68/113/3
f 73/121/4 75/123/4 72/120/4 71/119/4
f 74/122/4 76/124/4 75/123/4 73/121/4
f 75/123/4 77/125/4 78/126/4 72/120/4
f 76/124/4 79/127/4 77/125/4 75/123/4
f 79/127/5 80/128/5 70/118/5 78/126/5 77/125/5
f 69/115/6 80/129/6 79/127/6 76/124/6 74/122/6
f 81/130/2 83/135/2 88/143/2 82/134/2
f 82/133/1 85/139/1 84/138/1 81/131/1
f 84/138/3 86/140/3 83/136/3 81/132/3
f 87/141/5 88/142/5 83/137/5 86/140/5
f 82/134/6 88/143/6 87/141/6 85/139/6
f 91/146/3 93/148/3 90/145/3 89/144/3
f 92/147/4 95/150/4 94/149/4 93/148/4 91/146/4
f 97/152/4 99/154/4 98/153/4 96/151/4
usemtl 目
f 148/233/2 150/238/2 155/246/2 149/237/2
f 149/236/1 152/242/1 151/241/1 148/234/1
f 151/241/3 153/243/3 150/239/3 148/235/3
f 152/242/4 154/244/4 153/243/4 151/241/4
f 154/244/5 155/245/5 150/240/5 153/243/5
f 149/237/6 155/246/6 154/244/6 152/242/6
