# Blender 3.3.1
# www.blender.org
mtllib toriLG.mtl
o 立方体.074
v 0.060000 -0.039986 0.010301
v 0.060000 -0.039986 -0.009699
v 0.060000 -0.019986 0.010301
v 0.080000 -0.039986 0.010301
v 0.080000 -0.039986 -0.009699
v 0.080000 -0.019986 0.010301
v 0.080000 -0.019986 -0.009699
v 0.060000 -0.019986 -0.009699
v -0.060000 -0.019986 0.010301
v -0.060000 -0.019986 -0.009699
v -0.060000 0.000014 0.010301
v -0.040000 -0.019986 0.010301
v -0.040000 -0.019986 -0.009699
v -0.040000 0.000014 0.010301
v -0.040000 0.000014 -0.009699
v -0.060000 0.000014 -0.009699
v -0.060000 -0.039986 0.010301
v -0.060000 -0.039986 -0.009699
v -0.060000 -0.019986 0.010301
v -0.040000 -0.039986 0.010301
v -0.040000 -0.039986 -0.009699
v -0.040000 -0.019986 0.010301
v -0.040000 -0.019986 -0.009699
v -0.060000 -0.019986 -0.009699
v -0.040000 -0.039986 0.010301
v -0.040000 -0.039986 -0.009699
v -0.040000 -0.019986 0.010301
v -0.020000 -0.039986 0.010301
v -0.020000 -0.039986 -0.009699
v -0.020000 -0.019986 0.010301
v -0.020000 -0.019986 -0.009699
v -0.040000 -0.019986 -0.009699
v -0.060000 -0.039986 0.030301
v -0.060000 -0.039986 0.010301
v -0.060000 -0.019986 0.030301
v -0.040000 -0.039986 0.030301
v -0.040000 -0.039986 0.010301
v -0.040000 -0.019986 0.030301
v -0.040000 -0.019986 0.010301
v -0.060000 -0.019986 0.010301
v -0.080000 -0.039986 0.010301
v -0.080000 -0.039986 -0.009699
v -0.080000 -0.019986 0.010301
v -0.060000 -0.039986 0.010301
v -0.060000 -0.039986 -0.009699
v -0.060000 -0.019986 0.010301
v -0.060000 -0.019986 -0.009699
v -0.080000 -0.019986 -0.009699
v 0.040000 -0.019986 0.010301
v 0.040000 -0.019986 -0.009699
v 0.040000 0.000014 0.010301
v 0.060000 -0.019986 0.010301
v 0.060000 -0.019986 -0.009699
v 0.060000 0.000014 0.010301
v 0.060000 0.000014 -0.009699
v 0.040000 0.000014 -0.009699
v 0.040000 -0.039986 0.010301
v 0.040000 -0.039986 -0.009699
v 0.040000 -0.019986 0.010301
v 0.060000 -0.039986 0.010301
v 0.060000 -0.039986 -0.009699
v 0.060000 -0.019986 0.010301
v 0.060000 -0.019986 -0.009699
v 0.040000 -0.019986 -0.009699
v 0.040000 -0.039986 0.030301
v 0.040000 -0.039986 0.010301
v 0.040000 -0.019986 0.030301
v 0.060000 -0.039986 0.030301
v 0.060000 -0.039986 0.010301
v 0.060000 -0.019986 0.030301
v 0.060000 -0.019986 0.010301
v 0.040000 -0.019986 0.010301
v 0.020000 -0.039986 0.010301
v 0.020000 -0.039986 -0.009699
v 0.020000 -0.019986 0.010301
v 0.040000 -0.039986 0.010301
v 0.040000 -0.039986 -0.009699
v 0.040000 -0.019986 0.010301
v 0.040000 -0.019986 -0.009699
v 0.020000 -0.019986 -0.009699
vn -0.0000 -1.0000 -0.0000
vn -1.0000 -0.0000 -0.0000
vn -0.0000 -0.0000 1.0000
vn 1.0000 -0.0000 -0.0000
vn -0.0000 1.0000 -0.0000
vn -0.0000 -0.0000 -1.0000
vt 0.125000 0.750000
vt 0.375000 0.000000
vt 0.375000 1.000000
vt 0.125000 0.500000
vt 0.375000 0.250000
vt 0.625000 0.000000
vt 0.625000 1.000000
vt 0.875000 0.750000
vt 0.375000 0.750000
vt 0.375000 0.500000
vt 0.625000 0.750000
vt 0.625000 0.500000
vt 0.875000 0.500000
vt 0.625000 0.250000
vt 0.125000 0.750000
vt 0.375000 0.000000
vt 0.375000 1.000000
vt 0.125000 0.500000
vt 0.375000 0.250000
vt 0.625000 0.000000
vt 0.625000 1.000000
vt 0.875000 0.750000
vt 0.375000 0.750000
vt 0.375000 0.500000
vt 0.625000 0.750000
vt 0.625000 0.500000
vt 0.875000 0.500000
vt 0.625000 0.250000
vt 0.125000 0.750000
vt 0.375000 0.000000
vt 0.375000 1.000000
vt 0.125000 0.500000
vt 0.375000 0.250000
vt 0.625000 0.000000
vt 0.625000 1.000000
vt 0.875000 0.750000
vt 0.375000 0.750000
vt 0.375000 0.500000
vt 0.625000 0.750000
vt 0.625000 0.500000
vt 0.875000 0.500000
vt 0.625000 0.250000
vt 0.125000 0.750000
vt 0.375000 0.000000
vt 0.375000 1.000000
vt 0.125000 0.500000
vt 0.375000 0.250000
vt 0.625000 0.000000
vt 0.625000 1.000000
vt 0.875000 0.750000
vt 0.375000 0.750000
vt 0.375000 0.500000
vt 0.625000 0.750000
vt 0.625000 0.500000
vt 0.875000 0.500000
vt 0.625000 0.250000
vt 0.125000 0.750000
vt 0.375000 0.000000
vt 0.375000 1.000000
vt 0.125000 0.500000
vt 0.375000 0.250000
vt 0.625000 0.000000
vt 0.625000 1.000000
vt 0.875000 0.750000
vt 0.375000 0.750000
vt 0.375000 0.500000
vt 0.625000 0.750000
vt 0.625000 0.500000
vt 0.875000 0.500000
vt 0.625000 0.250000
vt 0.125000 0.750000
vt 0.375000 0.000000
vt 0.375000 1.000000
vt 0.125000 0.500000
vt 0.375000 0.250000
vt 0.625000 0.000000
vt 0.625000 1.000000
vt 0.875000 0.750000
vt 0.375000 0.750000
vt 0.375000 0.500000
vt 0.625000 0.750000
vt 0.625000 0.500000
vt 0.875000 0.500000
vt 0.625000 0.250000
vt 0.125000 0.750000
vt 0.375000 0.000000
vt 0.375000 1.000000
vt 0.125000 0.500000
vt 0.375000 0.250000
vt 0.625000 0.000000
vt 0.625000 1.000000
vt 0.875000 0.750000
vt 0.375000 0.750000
vt 0.375000 0.500000
vt 0.625000 0.750000
vt 0.625000 0.500000
vt 0.875000 0.500000
vt 0.625000 0.250000
vt 0.125000 0.750000
vt 0.375000 0.000000
vt 0.375000 1.000000
vt 0.125000 0.500000
vt 0.375000 0.250000
vt 0.625000 0.000000
vt 0.625000 1.000000
vt 0.875000 0.750000
vt 0.375000 0.750000
vt 0.375000 0.500000
vt 0.625000 0.750000
vt 0.625000 0.500000
vt 0.875000 0.500000
vt 0.625000 0.250000
vt 0.125000 0.750000
vt 0.375000 0.000000
vt 0.375000 1.000000
vt 0.125000 0.500000
vt 0.375000 0.250000
vt 0.625000 0.000000
vt 0.625000 1.000000
vt 0.875000 0.750000
vt 0.375000 0.750000
vt 0.375000 0.500000
vt 0.625000 0.750000
vt 0.625000 0.500000
vt 0.875000 0.500000
vt 0.625000 0.250000
vt 0.125000 0.750000
vt 0.375000 0.000000
vt 0.375000 1.000000
vt 0.125000 0.500000
vt 0.375000 0.250000
vt 0.625000 0.000000
vt 0.625000 1.000000
vt 0.875000 0.750000
vt 0.375000 0.750000
vt 0.375000 0.500000
vt 0.625000 0.750000
vt 0.625000 0.500000
vt 0.875000 0.500000
vt 0.625000 0.250000
s 0
usemtl 足
f 2/4/1 5/10/1 4/9/1 1/1/1
f 1/2/2 3/6/2 8/14/2 2/5/2
f 4/9/3 6/11/3 3/7/3 1/3/3
f 5/10/4 7/12/4 6/11/4 4/9/4
f 7/12/5 8/13/5 3/8/5 6/11/5
f 2/5/6 8/14/6 7/12/6 5/10/6
f 10/18/1 13/24/1 12/23/1 9/15/1
f 9/16/2 11/20/2 16/28/2 10/19/2
f 12/23/3 14/25/3 11/21/3 9/17/3
f 13/24/4 15/26/4 14/25/4 12/23/4
f 15/26/5 16/27/5 11/22/5 14/25/5
f 10/19/6 16/28/6 15/26/6 13/24/6
f 18/32/1 21/38/1 20/37/1 17/29/1
f 17/30/2 19/34/2 24/42/2 18/33/2
f 20/37/3 22/39/3 19/35/3 17/31/3
f 21/38/4 23/40/4 22/39/4 20/37/4
f 23/40/5 24/41/5 19/36/5 22/39/5
f 18/33/6 24/42/6 23/40/6 21/38/6
f 26/46/1 29/52/1 28/51/1 25/43/1
f 25/44/2 27/48/2 32/56/2 26/47/2
f 28/51/3 30/53/3 27/49/3 25/45/3
f 29/52/4 31/54/4 30/53/4 28/51/4
f 31/54/5 32/55/5 27/50/5 30/53/5
f 26/47/6 32/56/6 31/54/6 29/52/6
f 34/60/1 37/66/1 36/65/1 33/57/1
f 33/58/2 35/62/2 40/70/2 34/61/2
f 36/65/3 38/67/3 35/63/3 33/59/3
f 37/66/4 39/68/4 38/67/4 36/65/4
f 39/68/5 40/69/5 35/64/5 38/67/5
f 34/61/6 40/70/6 39/68/6 37/66/6
f 42/74/1 45/80/1 44/79/1 41/71/1
f 41/72/2 43/76/2 48/84/2 42/75/2
f 44/79/3 46/81/3 43/77/3 41/73/3
f 45/80/4 47/82/4 46/81/4 44/79/4
f 47/82/5 48/83/5 43/78/5 46/81/5
f 42/75/6 48/84/6 47/82/6 45/80/6
f 50/88/1 53/94/1 52/93/1 49/85/1
f 49/86/2 51/90/2 56/98/2 50/89/2
f 52/93/3 54/95/3 51/91/3 49/87/3
f 53/94/4 55/96/4 54/95/4 52/93/4
f 55/96/5 56/97/5 51/92/5 54/95/5
f 50/89/6 56/98/6 55/96/6 53/94/6
f 58/102/1 61/108/1 60/107/1 57/99/1
f 57/100/2 59/104/2 64/112/2 58/103/2
f 60/107/3 62/109/3 59/105/3 57/101/3
f 61/108/4 63/110/4 62/109/4 60/107/4
f 63/110/5 64/111/5 59/106/5 62/109/5
f 58/103/6 64/112/6 63/110/6 61/108/6
f 66/116/1 69/122/1 68/121/1 65/113/1
f 65/114/2 67/118/2 72/126/2 66/117/2
f 68/121/3 70/123/3 67/119/3 65/115/3
f 69/122/4 71/124/4 70/123/4 68/121/4
f 71/124/5 72/125/5 67/120/5 70/123/5
f 66/117/6 72/126/6 71/124/6 69/122/6
f 74/130/1 77/136/1 76/135/1 73/127/1
f 73/128/2 75/132/2 80/140/2 74/131/2
f 76/135/3 78/137/3 75/133/3 73/129/3
f 77/136/4 79/138/4 78/137/4 76/135/4
f 79/138/5 80/139/5 75/134/5 78/137/5
f 74/131/6 80/140/6 79/138/6 77/136/6
