# Blender 3.3.1
# www.blender.org
mtllib waniBD2.mtl
o Untitled
v -0.700000 -0.400000 -0.000000
v -0.700000 -0.400000 -3.400000
v -0.700000 -0.000000 -0.000000
v -0.700000 0.000000 -3.400000
v -0.500000 -0.400000 -3.400000
v -0.500000 -0.400000 -4.400000
v -0.500000 -0.000000 -0.000000
v -0.500000 0.000000 -3.400000
v -0.500000 0.000000 -4.400000
v -0.500000 0.200000 0.000000
v -0.500000 0.200000 -3.400000
v -0.300000 -0.400000 -4.400000
v -0.300000 -0.400000 -5.200000
v -0.300000 0.000000 -3.400000
v -0.300000 0.000000 -4.200000
v -0.300000 0.000000 -4.400000
v -0.300000 0.000000 -5.200000
v -0.300000 0.200000 0.000000
v -0.300000 0.200000 -3.200000
v -0.300000 0.200000 -3.400000
v -0.300000 0.200000 -4.200000
v -0.300000 0.400000 0.000000
v -0.300000 0.400000 -3.200000
v -0.100000 -0.400000 -5.200000
v -0.100000 -0.400000 -5.600000
v -0.100000 0.000000 -4.200000
v -0.100000 0.000000 -5.000000
v -0.100000 0.000000 -5.200000
v -0.100000 0.000000 -5.600000
v -0.100000 0.200000 -3.200000
v -0.100000 0.200000 -4.000000
v -0.100000 0.200000 -4.200000
v -0.100000 0.200000 -5.000000
v -0.100000 0.400000 -3.200000
v -0.100000 0.400000 -4.000000
v 0.100000 -0.400000 -5.200000
v 0.100000 -0.400000 -5.600000
v 0.100000 0.000000 -4.200000
v 0.100000 0.000000 -5.000000
v 0.100000 0.000000 -5.200000
v 0.100000 0.000000 -5.600000
v 0.100000 0.200000 -3.200000
v 0.100000 0.200000 -4.000000
v 0.100000 0.200000 -4.200000
v 0.100000 0.200000 -5.000000
v 0.100000 0.400000 -3.200000
v 0.100000 0.400000 -4.000000
v 0.300000 -0.400000 -4.400000
v 0.300000 -0.400000 -5.200000
v 0.300000 0.000000 -3.400000
v 0.300000 0.000000 -4.200000
v 0.300000 0.000000 -4.400000
v 0.300000 0.000000 -5.200000
v 0.300000 0.200000 0.000000
v 0.300000 0.200000 -3.200000
v 0.300000 0.200000 -3.400000
v 0.300000 0.200000 -4.200000
v 0.300000 0.400000 0.000000
v 0.300000 0.400000 -3.200000
v 0.500000 -0.400000 -3.400000
v 0.500000 -0.400000 -4.400000
v 0.500000 -0.000000 -0.000000
v 0.500000 0.000000 -3.400000
v 0.500000 0.000000 -4.400000
v 0.500000 0.200000 0.000000
v 0.500000 0.200000 -3.400000
v 0.700000 -0.400000 -0.000000
v 0.700000 -0.400000 -3.400000
v 0.700000 -0.000000 -0.000000
v 0.700000 0.000000 -3.400000
v -0.700000 -0.400000 -0.000000
v -0.700000 -0.000000 -0.000000
v -0.500000 -0.000000 -0.000000
v -0.500000 0.200000 0.000000
v -0.300000 0.200000 0.000000
v -0.300000 0.400000 0.000000
v 0.300000 0.200000 0.000000
v 0.300000 0.400000 0.000000
v 0.500000 -0.000000 -0.000000
v 0.500000 0.200000 0.000000
v 0.700000 -0.400000 -0.000000
v 0.700000 -0.000000 -0.000000
v -0.300000 0.200000 -3.200000
v -0.300000 0.400000 -3.200000
v -0.100000 0.200000 -3.200000
v -0.100000 0.400000 -3.200000
v 0.100000 0.200000 -3.200000
v 0.100000 0.400000 -3.200000
v 0.300000 0.200000 -3.200000
v 0.300000 0.400000 -3.200000
v -0.700000 -0.400000 -3.400000
v -0.700000 0.000000 -3.400000
v -0.500000 -0.400000 -3.400000
v -0.500000 0.000000 -3.400000
v -0.500000 0.200000 -3.400000
v -0.300000 0.000000 -3.400000
v -0.300000 0.200000 -3.400000
v 0.300000 0.000000 -3.400000
v 0.300000 0.200000 -3.400000
v 0.500000 -0.400000 -3.400000
v 0.500000 0.000000 -3.400000
v 0.500000 0.200000 -3.400000
v 0.700000 -0.400000 -3.400000
v 0.700000 0.000000 -3.400000
v -0.100000 0.200000 -4.000000
v -0.100000 0.400000 -4.000000
v 0.100000 0.200000 -4.000000
v 0.100000 0.400000 -4.000000
v -0.300000 0.000000 -4.200000
v -0.300000 0.200000 -4.200000
v -0.100000 0.000000 -4.200000
v -0.100000 0.200000 -4.200000
v 0.100000 0.000000 -4.200000
v 0.100000 0.200000 -4.200000
v 0.300000 0.000000 -4.200000
v 0.300000 0.200000 -4.200000
v -0.500000 -0.400000 -4.400000
v -0.500000 0.000000 -4.400000
v -0.300000 -0.400000 -4.400000
v -0.300000 0.000000 -4.400000
v 0.300000 -0.400000 -4.400000
v 0.300000 0.000000 -4.400000
v 0.500000 -0.400000 -4.400000
v 0.500000 0.000000 -4.400000
v -0.100000 0.000000 -5.000000
v -0.100000 0.200000 -5.000000
v 0.100000 0.000000 -5.000000
v 0.100000 0.200000 -5.000000
v -0.300000 -0.400000 -5.200000
v -0.300000 0.000000 -5.200000
v -0.100000 -0.400000 -5.200000
v -0.100000 0.000000 -5.200000
v 0.100000 -0.400000 -5.200000
v 0.100000 0.000000 -5.200000
v 0.300000 -0.400000 -5.200000
v 0.300000 0.000000 -5.200000
v -0.100000 -0.400000 -5.600000
v -0.100000 0.000000 -5.600000
v 0.100000 -0.400000 -5.600000
v 0.100000 0.000000 -5.600000
v -0.700000 -0.400000 -0.000000
v 0.700000 -0.400000 -0.000000
v -0.700000 -0.400000 -3.400000
v -0.500000 -0.400000 -3.400000
v 0.500000 -0.400000 -3.400000
v 0.700000 -0.400000 -3.400000
v -0.500000 -0.400000 -4.400000
v -0.300000 -0.400000 -4.400000
v 0.300000 -0.400000 -4.400000
v 0.500000 -0.400000 -4.400000
v -0.300000 -0.400000 -5.200000
v -0.100000 -0.400000 -5.200000
v 0.100000 -0.400000 -5.200000
v 0.300000 -0.400000 -5.200000
v -0.100000 -0.400000 -5.600000
v 0.100000 -0.400000 -5.600000
v -0.700000 -0.000000 -0.000000
v -0.500000 -0.000000 -0.000000
v 0.500000 -0.000000 -0.000000
v 0.700000 -0.000000 -0.000000
v -0.700000 0.000000 -3.400000
v -0.500000 0.000000 -3.400000
v -0.300000 0.000000 -3.400000
v 0.300000 0.000000 -3.400000
v 0.500000 0.000000 -3.400000
v 0.700000 0.000000 -3.400000
v -0.300000 0.000000 -4.200000
v -0.100000 0.000000 -4.200000
v 0.100000 0.000000 -4.200000
v 0.300000 0.000000 -4.200000
v -0.500000 0.000000 -4.400000
v -0.300000 0.000000 -4.400000
v 0.300000 0.000000 -4.400000
v 0.500000 0.000000 -4.400000
v -0.100000 0.000000 -5.000000
v 0.100000 0.000000 -5.000000
v -0.300000 0.000000 -5.200000
v -0.100000 0.000000 -5.200000
v 0.100000 0.000000 -5.200000
v 0.300000 0.000000 -5.200000
v -0.100000 0.000000 -5.600000
v 0.100000 0.000000 -5.600000
v -0.500000 0.200000 0.000000
v -0.300000 0.200000 0.000000
v 0.300000 0.200000 0.000000
v 0.500000 0.200000 0.000000
v -0.300000 0.200000 -3.200000
v -0.100000 0.200000 -3.200000
v 0.100000 0.200000 -3.200000
v 0.300000 0.200000 -3.200000
v -0.500000 0.200000 -3.400000
v -0.300000 0.200000 -3.400000
v 0.300000 0.200000 -3.400000
v 0.500000 0.200000 -3.400000
v -0.100000 0.200000 -4.000000
v 0.100000 0.200000 -4.000000
v -0.300000 0.200000 -4.200000
v -0.100000 0.200000 -4.200000
v 0.100000 0.200000 -4.200000
v 0.300000 0.200000 -4.200000
v -0.100000 0.200000 -5.000000
v 0.100000 0.200000 -5.000000
v -0.300000 0.400000 0.000000
v 0.300000 0.400000 0.000000
v -0.300000 0.400000 -3.200000
v -0.100000 0.400000 -3.200000
v 0.100000 0.400000 -3.200000
v 0.300000 0.400000 -3.200000
v -0.100000 0.400000 -4.000000
v 0.100000 0.400000 -4.000000
vn -1.0000 -0.0000 -0.0000
vn 1.0000 -0.0000 -0.0000
vn -0.0000 -0.0000 1.0000
vn -0.0000 -0.0000 -1.0000
vn -0.0000 -1.0000 -0.0000
vn -0.0000 1.0000 -0.0000
vt 0.626953 0.500000
vt 0.626953 0.500000
vt 0.626953 0.500000
vt 0.626953 0.500000
vt 0.626953 0.500000
vt 0.626953 0.500000
vt 0.626953 0.500000
vt 0.626953 0.500000
vt 0.626953 0.500000
vt 0.626953 0.500000
vt 0.626953 0.500000
vt 0.626953 0.500000
vt 0.626953 0.500000
vt 0.626953 0.500000
vt 0.626953 0.500000
vt 0.626953 0.500000
vt 0.626953 0.500000
vt 0.626953 0.500000
vt 0.626953 0.500000
vt 0.626953 0.500000
vt 0.626953 0.500000
vt 0.626953 0.500000
vt 0.626953 0.500000
vt 0.626953 0.500000
vt 0.626953 0.500000
vt 0.626953 0.500000
vt 0.626953 0.500000
vt 0.626953 0.500000
vt 0.626953 0.500000
vt 0.626953 0.500000
vt 0.626953 0.500000
vt 0.626953 0.500000
vt 0.626953 0.500000
vt 0.626953 0.500000
vt 0.626953 0.500000
vt 0.626953 0.500000
vt 0.626953 0.500000
vt 0.626953 0.500000
vt 0.626953 0.500000
vt 0.626953 0.500000
vt 0.626953 0.500000
vt 0.626953 0.500000
vt 0.626953 0.500000
vt 0.626953 0.500000
vt 0.626953 0.500000
vt 0.626953 0.500000
vt 0.626953 0.500000
vt 0.626953 0.500000
vt 0.626953 0.500000
vt 0.626953 0.500000
vt 0.626953 0.500000
vt 0.626953 0.500000
vt 0.626953 0.500000
vt 0.626953 0.500000
vt 0.626953 0.500000
vt 0.626953 0.500000
vt 0.626953 0.500000
vt 0.626953 0.500000
vt 0.626953 0.500000
vt 0.626953 0.500000
vt 0.626953 0.500000
vt 0.626953 0.500000
vt 0.626953 0.500000
vt 0.626953 0.500000
vt 0.626953 0.500000
vt 0.626953 0.500000
vt 0.626953 0.500000
vt 0.626953 0.500000
vt 0.626953 0.500000
vt 0.626953 0.500000
vt 0.626953 0.500000
vt 0.626953 0.500000
vt 0.626953 0.500000
vt 0.626953 0.500000
vt 0.626953 0.500000
vt 0.626953 0.500000
vt 0.626953 0.500000
vt 0.626953 0.500000
vt 0.626953 0.500000
vt 0.626953 0.500000
vt 0.626953 0.500000
vt 0.626953 0.500000
vt 0.626953 0.500000
vt 0.626953 0.500000
vt 0.626953 0.500000
vt 0.626953 0.500000
vt 0.626953 0.500000
vt 0.626953 0.500000
vt 0.626953 0.500000
vt 0.626953 0.500000
vt 0.626953 0.500000
vt 0.626953 0.500000
vt 0.626953 0.500000
vt 0.626953 0.500000
vt 0.626953 0.500000
vt 0.626953 0.500000
vt 0.626953 0.500000
vt 0.626953 0.500000
vt 0.626953 0.500000
vt 0.626953 0.500000
vt 0.626953 0.500000
vt 0.626953 0.500000
vt 0.626953 0.500000
vt 0.626953 0.500000
vt 0.626953 0.500000
vt 0.626953 0.500000
vt 0.626953 0.500000
vt 0.626953 0.500000
vt 0.626953 0.500000
vt 0.626953 0.500000
vt 0.626953 0.500000
vt 0.626953 0.500000
vt 0.626953 0.500000
vt 0.626953 0.500000
vt 0.626953 0.500000
vt 0.626953 0.500000
vt 0.626953 0.500000
vt 0.626953 0.500000
vt 0.626953 0.500000
vt 0.626953 0.500000
vt 0.626953 0.500000
vt 0.626953 0.500000
vt 0.626953 0.500000
vt 0.626953 0.500000
vt 0.626953 0.500000
vt 0.626953 0.500000
vt 0.626953 0.500000
vt 0.626953 0.500000
vt 0.626953 0.500000
vt 0.626953 0.500000
vt 0.626953 0.500000
vt 0.626953 0.500000
vt 0.626953 0.500000
vt 0.626953 0.500000
vt 0.626953 0.500000
vt 0.626953 0.500000
vt 0.626953 0.500000
vt 0.626953 0.500000
vt 0.626953 0.500000
vt 0.626953 0.500000
vt 0.626953 0.500000
vt 0.626953 0.500000
vt 0.626953 0.500000
vt 0.626953 0.500000
vt 0.626953 0.500000
vt 0.626953 0.500000
vt 0.626953 0.500000
vt 0.626953 0.500000
vt 0.626953 0.500000
vt 0.626953 0.500000
vt 0.626953 0.500000
vt 0.626953 0.500000
vt 0.626953 0.500000
vt 0.626953 0.500000
vt 0.626953 0.500000
vt 0.626953 0.500000
vt 0.626953 0.500000
vt 0.626953 0.500000
vt 0.626953 0.500000
vt 0.626953 0.500000
vt 0.626953 0.500000
vt 0.626953 0.500000
vt 0.626953 0.500000
vt 0.626953 0.500000
vt 0.626953 0.500000
vt 0.626953 0.500000
vt 0.626953 0.500000
vt 0.626953 0.500000
vt 0.626953 0.500000
vt 0.626953 0.500000
vt 0.626953 0.500000
vt 0.626953 0.500000
vt 0.626953 0.500000
vt 0.626953 0.500000
vt 0.626953 0.500000
vt 0.626953 0.500000
vt 0.626953 0.500000
vt 0.626953 0.500000
vt 0.626953 0.500000
vt 0.626953 0.500000
vt 0.626953 0.500000
vt 0.626953 0.500000
vt 0.626953 0.500000
vt 0.626953 0.500000
vt 0.626953 0.500000
vt 0.626953 0.500000
vt 0.626953 0.500000
vt 0.626953 0.500000
vt 0.626953 0.500000
vt 0.626953 0.500000
vt 0.626953 0.500000
vt 0.626953 0.500000
vt 0.626953 0.500000
vt 0.626953 0.500000
vt 0.626953 0.500000
vt 0.626953 0.500000
vt 0.626953 0.500000
vt 0.626953 0.500000
vt 0.626953 0.500000
vt 0.626953 0.500000
vt 0.626953 0.500000
vt 0.626953 0.500000
vt 0.626953 0.500000
vt 0.626953 0.500000
vt 0.626953 0.500000
vt 0.626953 0.500000
vt 0.626953 0.500000
vt 0.626953 0.500000
vt 0.626953 0.500000
vt 0.626953 0.500000
s 0
usemtl マテリアル
f 3/3/1 2/2/1 1/1/1
f 4/4/1 2/2/1 3/3/1
f 8/8/1 6/6/1 5/5/1
f 9/9/1 6/6/1 8/8/1
f 10/10/1 8/8/1 7/7/1
f 11/11/1 8/8/1 10/10/1
f 16/16/1 13/13/1 12/12/1
f 17/17/1 13/13/1 16/16/1
f 20/20/1 15/15/1 14/14/1
f 21/21/1 15/15/1 20/20/1
f 22/22/1 19/19/1 18/18/1
f 23/23/1 19/19/1 22/22/1
f 28/28/1 25/25/1 24/24/1
f 29/29/1 25/25/1 28/28/1
f 32/32/1 27/27/1 26/26/1
f 33/33/1 27/27/1 32/32/1
f 34/34/1 31/31/1 30/30/1
f 35/35/1 31/31/1 34/34/1
f 36/36/2 37/37/2 40/40/2
f 40/40/2 37/37/2 41/41/2
f 38/38/2 39/39/2 44/44/2
f 44/44/2 39/39/2 45/45/2
f 42/42/2 43/43/2 46/46/2
f 46/46/2 43/43/2 47/47/2
f 48/48/2 49/49/2 52/52/2
f 52/52/2 49/49/2 53/53/2
f 50/50/2 51/51/2 56/56/2
f 56/56/2 51/51/2 57/57/2
f 54/54/2 55/55/2 58/58/2
f 58/58/2 55/55/2 59/59/2
f 60/60/2 61/61/2 63/63/2
f 63/63/2 61/61/2 64/64/2
f 62/62/2 63/63/2 65/65/2
f 65/65/2 63/63/2 66/66/2
f 67/67/2 68/68/2 69/69/2
f 69/69/2 68/68/2 70/70/2
f 73/73/3 72/72/3 71/71/3
f 75/75/3 74/74/3 73/73/3
f 77/77/3 75/75/3 73/73/3
f 77/77/3 76/76/3 75/75/3
f 78/78/3 76/76/3 77/77/3
f 79/79/3 73/73/3 71/71/3
f 79/79/3 77/77/3 73/73/3
f 80/80/3 77/77/3 79/79/3
f 81/81/3 79/79/3 71/71/3
f 82/82/3 79/79/3 81/81/3
f 83/83/4 84/84/4 85/85/4
f 85/85/4 84/84/4 86/86/4
f 87/87/4 88/88/4 89/89/4
f 89/89/4 88/88/4 90/90/4
f 91/91/4 92/92/4 93/93/4
f 93/93/4 92/92/4 94/94/4
f 94/94/4 95/95/4 96/96/4
f 96/96/4 95/95/4 97/97/4
f 98/98/4 99/99/4 101/101/4
f 101/101/4 99/99/4 102/102/4
f 100/100/4 101/101/4 103/103/4
f 103/103/4 101/101/4 104/104/4
f 105/105/4 106/106/4 107/107/4
f 107/107/4 106/106/4 108/108/4
f 109/109/4 110/110/4 111/111/4
f 111/111/4 110/110/4 112/112/4
f 113/113/4 114/114/4 115/115/4
f 115/115/4 114/114/4 116/116/4
f 117/117/4 118/118/4 119/119/4
f 119/119/4 118/118/4 120/120/4
f 121/121/4 122/122/4 123/123/4
f 123/123/4 122/122/4 124/124/4
f 125/125/4 126/126/4 127/127/4
f 127/127/4 126/126/4 128/128/4
f 129/129/4 130/130/4 131/131/4
f 131/131/4 130/130/4 132/132/4
f 133/133/4 134/134/4 135/135/4
f 135/135/4 134/134/4 136/136/4
f 137/137/4 138/138/4 139/139/4
f 139/139/4 138/138/4 140/140/4
f 143/143/5 142/142/5 141/141/5
f 144/144/5 142/142/5 143/143/5
f 145/145/5 142/142/5 144/144/5
f 146/146/5 142/142/5 145/145/5
f 147/147/5 145/145/5 144/144/5
f 148/148/5 145/145/5 147/147/5
f 149/149/5 145/145/5 148/148/5
f 150/150/5 145/145/5 149/149/5
f 151/151/5 149/149/5 148/148/5
f 152/152/5 149/149/5 151/151/5
f 153/153/5 149/149/5 152/152/5
f 154/154/5 149/149/5 153/153/5
f 155/155/5 153/153/5 152/152/5
f 156/156/5 153/153/5 155/155/5
f 157/157/6 158/158/6 161/161/6
f 161/161/6 158/158/6 162/162/6
f 159/159/6 160/160/6 165/165/6
f 165/165/6 160/160/6 166/166/6
f 162/162/6 163/163/6 167/167/6
f 164/164/6 165/165/6 170/170/6
f 167/167/6 168/168/6 171/171/6
f 162/162/6 167/167/6 171/171/6
f 171/171/6 168/168/6 172/172/6
f 169/169/6 170/170/6 173/173/6
f 170/170/6 165/165/6 173/173/6
f 173/173/6 165/165/6 174/174/6
f 172/172/6 168/168/6 175/175/6
f 169/169/6 173/173/6 176/176/6
f 172/172/6 175/175/6 177/177/6
f 175/175/6 176/176/6 177/177/6
f 177/177/6 176/176/6 178/178/6
f 176/176/6 173/173/6 179/179/6
f 178/178/6 176/176/6 179/179/6
f 179/179/6 173/173/6 180/180/6
f 178/178/6 179/179/6 181/181/6
f 181/181/6 179/179/6 182/182/6
f 183/183/6 184/184/6 187/187/6
f 185/185/6 186/186/6 190/190/6
f 187/187/6 188/188/6 191/191/6
f 183/183/6 187/187/6 191/191/6
f 191/191/6 188/188/6 192/192/6
f 189/189/6 190/190/6 193/193/6
f 190/190/6 186/186/6 193/193/6
f 193/193/6 186/186/6 194/194/6
f 192/192/6 188/188/6 195/195/6
f 189/189/6 193/193/6 196/196/6
f 192/192/6 195/195/6 197/197/6
f 195/195/6 196/196/6 197/197/6
f 197/197/6 196/196/6 198/198/6
f 196/196/6 193/193/6 199/199/6
f 198/198/6 196/196/6 199/199/6
f 199/199/6 193/193/6 200/200/6
f 198/198/6 199/199/6 201/201/6
f 201/201/6 199/199/6 202/202/6
f 203/203/6 204/204/6 205/205/6
f 205/205/6 204/204/6 206/206/6
f 206/206/6 204/204/6 207/207/6
f 207/207/6 204/204/6 208/208/6
f 206/206/6 207/207/6 209/209/6
f 209/209/6 207/207/6 210/210/6
